# xmcd
#
# Track frame offsets:
#	150
#	14926
#	31850
#	53204
#	70543
#	88245
#	108230
#	128084
#	146544
#	171066
#
# Disc length: 2478 seconds
#
# Revision: 1
# Processed by: cddbd v1.5.1PL2 Copyright (c) Steve Scherf et al.
# Submitted via: audiograbber 1.83.01
#
DISCID=8409ac0a
DTITLE=Jon Justice - Forget About Time
DYEAR=2003
DGENRE=Blues
TTITLE0=Forget About Time
TTITLE1=Why
TTITLE2=Sun Shines Sometimes
TTITLE3=Next To Me
TTITLE4=Stay
TTITLE5=Chains of Love
TTITLE6=Lady Soul
TTITLE7=Crazy Love
TTITLE8=Don't Let This Be The One
TTITLE9=That's Allright
EXTD=
EXTT0=
EXTT1=
EXTT2=
EXTT3=
EXTT4=
EXTT5=
EXTT6=
EXTT7=
EXTT8=
EXTT9=
PLAYORDER=
